<mxfile host="app.diagrams.net" modified="2023-01-31T13:56:25.022Z" agent="5.0 (Windows NT 10.0; Win64; x64) AppleWebKit/537.36 (KHTML, like Gecko) Chrome/109.0.0.0 Safari/537.36" etag="u7B8OYpAEMVw9Xl5qpI4" version="20.8.13" type="github">
  <diagram id="C5RBs43oDa-KdzZeNtuy" name="Page-1">
    <mxGraphModel dx="1050" dy="581" grid="1" gridSize="10" guides="1" tooltips="1" connect="1" arrows="1" fold="1" page="1" pageScale="1" pageWidth="827" pageHeight="1169" math="0" shadow="0">
      <root>
        <mxCell id="WIyWlLk6GJQsqaUBKTNV-0" />
        <mxCell id="WIyWlLk6GJQsqaUBKTNV-1" parent="WIyWlLk6GJQsqaUBKTNV-0" />
        <mxCell id="PFBzOuT5Nha9AD8Nsqsn-6" value="" style="edgeStyle=orthogonalEdgeStyle;rounded=0;orthogonalLoop=1;jettySize=auto;html=1;" parent="WIyWlLk6GJQsqaUBKTNV-1" source="PFBzOuT5Nha9AD8Nsqsn-0" target="PFBzOuT5Nha9AD8Nsqsn-5" edge="1">
          <mxGeometry relative="1" as="geometry" />
        </mxCell>
        <mxCell id="PFBzOuT5Nha9AD8Nsqsn-12" value="" style="edgeStyle=orthogonalEdgeStyle;rounded=0;orthogonalLoop=1;jettySize=auto;html=1;" parent="WIyWlLk6GJQsqaUBKTNV-1" source="PFBzOuT5Nha9AD8Nsqsn-0" target="PFBzOuT5Nha9AD8Nsqsn-5" edge="1">
          <mxGeometry relative="1" as="geometry" />
        </mxCell>
        <mxCell id="PFBzOuT5Nha9AD8Nsqsn-14" style="edgeStyle=orthogonalEdgeStyle;rounded=0;orthogonalLoop=1;jettySize=auto;html=1;" parent="WIyWlLk6GJQsqaUBKTNV-1" source="PFBzOuT5Nha9AD8Nsqsn-0" target="PFBzOuT5Nha9AD8Nsqsn-13" edge="1">
          <mxGeometry relative="1" as="geometry" />
        </mxCell>
        <mxCell id="PFBzOuT5Nha9AD8Nsqsn-0" value="Start" style="ellipse;whiteSpace=wrap;html=1;" parent="WIyWlLk6GJQsqaUBKTNV-1" vertex="1">
          <mxGeometry x="166" y="40" width="120" height="80" as="geometry" />
        </mxCell>
        <mxCell id="PFBzOuT5Nha9AD8Nsqsn-1" value="&lt;b style=&quot;color: rgb(23, 43, 77); font-family: -apple-system, BlinkMacSystemFont, &amp;quot;Segoe UI&amp;quot;, Roboto, Oxygen, Ubuntu, &amp;quot;Fira Sans&amp;quot;, &amp;quot;Droid Sans&amp;quot;, &amp;quot;Helvetica Neue&amp;quot;, sans-serif; font-size: 14px; text-align: left; background-color: rgb(255, 255, 255);&quot;&gt;e_addToCart&lt;/b&gt;&amp;nbsp;" style="ellipse;whiteSpace=wrap;html=1;fillColor=#fff2cc;strokeColor=#d6b656;" parent="WIyWlLk6GJQsqaUBKTNV-1" vertex="1">
          <mxGeometry x="560" y="370" width="120" height="40" as="geometry" />
        </mxCell>
        <mxCell id="PFBzOuT5Nha9AD8Nsqsn-2" value="&lt;b style=&quot;color: rgb(23, 43, 77); font-family: -apple-system, BlinkMacSystemFont, &amp;quot;Segoe UI&amp;quot;, Roboto, Oxygen, Ubuntu, &amp;quot;Fira Sans&amp;quot;, &amp;quot;Droid Sans&amp;quot;, &amp;quot;Helvetica Neue&amp;quot;, sans-serif; font-size: 14px; text-align: left; background-color: rgb(255, 255, 255);&quot;&gt;e_removeFromCart&lt;/b&gt;&amp;nbsp;" style="ellipse;whiteSpace=wrap;html=1;fillColor=#fff2cc;strokeColor=#d6b656;" parent="WIyWlLk6GJQsqaUBKTNV-1" vertex="1">
          <mxGeometry x="580" y="640" width="150" height="40" as="geometry" />
        </mxCell>
        <mxCell id="PFBzOuT5Nha9AD8Nsqsn-3" value="&lt;b style=&quot;color: rgb(23, 43, 77); font-family: -apple-system, BlinkMacSystemFont, &amp;quot;Segoe UI&amp;quot;, Roboto, Oxygen, Ubuntu, &amp;quot;Fira Sans&amp;quot;, &amp;quot;Droid Sans&amp;quot;, &amp;quot;Helvetica Neue&amp;quot;, sans-serif; font-size: 14px; text-align: left; background-color: rgb(255, 255, 255);&quot;&gt;e_transactionComplete&lt;/b&gt;&amp;nbsp;" style="ellipse;whiteSpace=wrap;html=1;fillColor=#fff2cc;strokeColor=#d6b656;" parent="WIyWlLk6GJQsqaUBKTNV-1" vertex="1">
          <mxGeometry x="430" y="820" width="180" height="40" as="geometry" />
        </mxCell>
        <mxCell id="PFBzOuT5Nha9AD8Nsqsn-9" value="" style="edgeStyle=orthogonalEdgeStyle;rounded=0;orthogonalLoop=1;jettySize=auto;html=1;" parent="WIyWlLk6GJQsqaUBKTNV-1" source="PFBzOuT5Nha9AD8Nsqsn-5" target="PFBzOuT5Nha9AD8Nsqsn-8" edge="1">
          <mxGeometry relative="1" as="geometry" />
        </mxCell>
        <mxCell id="PFBzOuT5Nha9AD8Nsqsn-5" value="Device List" style="whiteSpace=wrap;html=1;" parent="WIyWlLk6GJQsqaUBKTNV-1" vertex="1">
          <mxGeometry x="166" y="150" width="120" height="60" as="geometry" />
        </mxCell>
        <mxCell id="PFBzOuT5Nha9AD8Nsqsn-11" value="" style="edgeStyle=orthogonalEdgeStyle;rounded=0;orthogonalLoop=1;jettySize=auto;html=1;" parent="WIyWlLk6GJQsqaUBKTNV-1" source="PFBzOuT5Nha9AD8Nsqsn-8" edge="1">
          <mxGeometry relative="1" as="geometry">
            <mxPoint x="370" y="290" as="targetPoint" />
          </mxGeometry>
        </mxCell>
        <mxCell id="PFBzOuT5Nha9AD8Nsqsn-17" value="" style="edgeStyle=orthogonalEdgeStyle;rounded=0;orthogonalLoop=1;jettySize=auto;html=1;" parent="WIyWlLk6GJQsqaUBKTNV-1" source="PFBzOuT5Nha9AD8Nsqsn-8" target="PFBzOuT5Nha9AD8Nsqsn-16" edge="1">
          <mxGeometry relative="1" as="geometry" />
        </mxCell>
        <mxCell id="PFBzOuT5Nha9AD8Nsqsn-8" value="Device details" style="whiteSpace=wrap;html=1;" parent="WIyWlLk6GJQsqaUBKTNV-1" vertex="1">
          <mxGeometry x="166" y="260" width="120" height="60" as="geometry" />
        </mxCell>
        <mxCell id="PFBzOuT5Nha9AD8Nsqsn-31" style="edgeStyle=orthogonalEdgeStyle;rounded=0;orthogonalLoop=1;jettySize=auto;html=1;" parent="WIyWlLk6GJQsqaUBKTNV-1" source="PFBzOuT5Nha9AD8Nsqsn-10" target="PFBzOuT5Nha9AD8Nsqsn-1" edge="1">
          <mxGeometry relative="1" as="geometry" />
        </mxCell>
        <mxCell id="PFBzOuT5Nha9AD8Nsqsn-10" value="Select Button" style="rounded=1;whiteSpace=wrap;html=1;fillColor=#dae8fc;strokeColor=#6c8ebf;" parent="WIyWlLk6GJQsqaUBKTNV-1" vertex="1">
          <mxGeometry x="334" y="270" width="80" height="40" as="geometry" />
        </mxCell>
        <mxCell id="PFBzOuT5Nha9AD8Nsqsn-25" style="edgeStyle=orthogonalEdgeStyle;rounded=0;orthogonalLoop=1;jettySize=auto;html=1;entryX=0;entryY=0.5;entryDx=0;entryDy=0;" parent="WIyWlLk6GJQsqaUBKTNV-1" source="PFBzOuT5Nha9AD8Nsqsn-13" target="PFBzOuT5Nha9AD8Nsqsn-8" edge="1">
          <mxGeometry relative="1" as="geometry">
            <Array as="points">
              <mxPoint x="60" y="290" />
            </Array>
          </mxGeometry>
        </mxCell>
        <mxCell id="PFBzOuT5Nha9AD8Nsqsn-13" value="BYOD" style="whiteSpace=wrap;html=1;" parent="WIyWlLk6GJQsqaUBKTNV-1" vertex="1">
          <mxGeometry x="10" y="140" width="120" height="60" as="geometry" />
        </mxCell>
        <mxCell id="PFBzOuT5Nha9AD8Nsqsn-19" value="" style="edgeStyle=orthogonalEdgeStyle;rounded=0;orthogonalLoop=1;jettySize=auto;html=1;" parent="WIyWlLk6GJQsqaUBKTNV-1" source="PFBzOuT5Nha9AD8Nsqsn-16" target="PFBzOuT5Nha9AD8Nsqsn-18" edge="1">
          <mxGeometry relative="1" as="geometry" />
        </mxCell>
        <mxCell id="PFBzOuT5Nha9AD8Nsqsn-22" value="" style="edgeStyle=orthogonalEdgeStyle;rounded=0;orthogonalLoop=1;jettySize=auto;html=1;" parent="WIyWlLk6GJQsqaUBKTNV-1" source="PFBzOuT5Nha9AD8Nsqsn-16" target="PFBzOuT5Nha9AD8Nsqsn-21" edge="1">
          <mxGeometry relative="1" as="geometry" />
        </mxCell>
        <mxCell id="PFBzOuT5Nha9AD8Nsqsn-16" value="Pick My Plan" style="whiteSpace=wrap;html=1;" parent="WIyWlLk6GJQsqaUBKTNV-1" vertex="1">
          <mxGeometry x="166" y="360" width="120" height="60" as="geometry" />
        </mxCell>
        <mxCell id="PFBzOuT5Nha9AD8Nsqsn-32" style="edgeStyle=orthogonalEdgeStyle;rounded=0;orthogonalLoop=1;jettySize=auto;html=1;" parent="WIyWlLk6GJQsqaUBKTNV-1" source="PFBzOuT5Nha9AD8Nsqsn-18" target="PFBzOuT5Nha9AD8Nsqsn-1" edge="1">
          <mxGeometry relative="1" as="geometry" />
        </mxCell>
        <mxCell id="PFBzOuT5Nha9AD8Nsqsn-18" value="Select Button" style="rounded=1;whiteSpace=wrap;html=1;fillColor=#dae8fc;strokeColor=#6c8ebf;" parent="WIyWlLk6GJQsqaUBKTNV-1" vertex="1">
          <mxGeometry x="342" y="370" width="80" height="40" as="geometry" />
        </mxCell>
        <mxCell id="PFBzOuT5Nha9AD8Nsqsn-24" value="" style="edgeStyle=orthogonalEdgeStyle;rounded=0;orthogonalLoop=1;jettySize=auto;html=1;" parent="WIyWlLk6GJQsqaUBKTNV-1" source="PFBzOuT5Nha9AD8Nsqsn-21" target="PFBzOuT5Nha9AD8Nsqsn-23" edge="1">
          <mxGeometry relative="1" as="geometry" />
        </mxCell>
        <mxCell id="PFBzOuT5Nha9AD8Nsqsn-35" value="" style="edgeStyle=orthogonalEdgeStyle;rounded=0;orthogonalLoop=1;jettySize=auto;html=1;" parent="WIyWlLk6GJQsqaUBKTNV-1" source="PFBzOuT5Nha9AD8Nsqsn-21" target="PFBzOuT5Nha9AD8Nsqsn-34" edge="1">
          <mxGeometry relative="1" as="geometry" />
        </mxCell>
        <mxCell id="PFBzOuT5Nha9AD8Nsqsn-21" value="Accessory" style="whiteSpace=wrap;html=1;" parent="WIyWlLk6GJQsqaUBKTNV-1" vertex="1">
          <mxGeometry x="166" y="470" width="120" height="60" as="geometry" />
        </mxCell>
        <mxCell id="PFBzOuT5Nha9AD8Nsqsn-33" style="edgeStyle=orthogonalEdgeStyle;rounded=0;orthogonalLoop=1;jettySize=auto;html=1;entryX=0.5;entryY=1;entryDx=0;entryDy=0;" parent="WIyWlLk6GJQsqaUBKTNV-1" source="PFBzOuT5Nha9AD8Nsqsn-23" target="PFBzOuT5Nha9AD8Nsqsn-1" edge="1">
          <mxGeometry relative="1" as="geometry" />
        </mxCell>
        <mxCell id="PFBzOuT5Nha9AD8Nsqsn-23" value="Continue Button" style="rounded=1;whiteSpace=wrap;html=1;fillColor=#dae8fc;strokeColor=#6c8ebf;" parent="WIyWlLk6GJQsqaUBKTNV-1" vertex="1">
          <mxGeometry x="334" y="480" width="96" height="40" as="geometry" />
        </mxCell>
        <mxCell id="PFBzOuT5Nha9AD8Nsqsn-27" value="1" style="ellipse;whiteSpace=wrap;html=1;aspect=fixed;fillColor=#d5e8d4;strokeColor=#82b366;" parent="WIyWlLk6GJQsqaUBKTNV-1" vertex="1">
          <mxGeometry x="240" y="220" width="30" height="30" as="geometry" />
        </mxCell>
        <mxCell id="PFBzOuT5Nha9AD8Nsqsn-28" value="3" style="ellipse;whiteSpace=wrap;html=1;aspect=fixed;fillColor=#d5e8d4;strokeColor=#82b366;" parent="WIyWlLk6GJQsqaUBKTNV-1" vertex="1">
          <mxGeometry x="304" y="350" width="30" height="30" as="geometry" />
        </mxCell>
        <mxCell id="PFBzOuT5Nha9AD8Nsqsn-29" value="2" style="ellipse;whiteSpace=wrap;html=1;aspect=fixed;fillColor=#d5e8d4;strokeColor=#82b366;" parent="WIyWlLk6GJQsqaUBKTNV-1" vertex="1">
          <mxGeometry x="60" y="230" width="30" height="30" as="geometry" />
        </mxCell>
        <mxCell id="PFBzOuT5Nha9AD8Nsqsn-30" value="4" style="ellipse;whiteSpace=wrap;html=1;aspect=fixed;fillColor=#d5e8d4;strokeColor=#82b366;" parent="WIyWlLk6GJQsqaUBKTNV-1" vertex="1">
          <mxGeometry x="290" y="460" width="30" height="30" as="geometry" />
        </mxCell>
        <mxCell id="PFBzOuT5Nha9AD8Nsqsn-39" style="edgeStyle=orthogonalEdgeStyle;rounded=0;orthogonalLoop=1;jettySize=auto;html=1;" parent="WIyWlLk6GJQsqaUBKTNV-1" source="PFBzOuT5Nha9AD8Nsqsn-34" target="PFBzOuT5Nha9AD8Nsqsn-37" edge="1">
          <mxGeometry relative="1" as="geometry" />
        </mxCell>
        <mxCell id="PFBzOuT5Nha9AD8Nsqsn-40" style="edgeStyle=orthogonalEdgeStyle;rounded=0;orthogonalLoop=1;jettySize=auto;html=1;entryX=0;entryY=0.75;entryDx=0;entryDy=0;" parent="WIyWlLk6GJQsqaUBKTNV-1" source="PFBzOuT5Nha9AD8Nsqsn-34" target="PFBzOuT5Nha9AD8Nsqsn-38" edge="1">
          <mxGeometry relative="1" as="geometry">
            <Array as="points">
              <mxPoint x="320" y="615" />
              <mxPoint x="320" y="693" />
            </Array>
          </mxGeometry>
        </mxCell>
        <mxCell id="PFBzOuT5Nha9AD8Nsqsn-34" value="Cart" style="whiteSpace=wrap;html=1;" parent="WIyWlLk6GJQsqaUBKTNV-1" vertex="1">
          <mxGeometry x="166" y="585" width="120" height="60" as="geometry" />
        </mxCell>
        <mxCell id="PFBzOuT5Nha9AD8Nsqsn-43" style="edgeStyle=orthogonalEdgeStyle;rounded=0;orthogonalLoop=1;jettySize=auto;html=1;entryX=0.5;entryY=0;entryDx=0;entryDy=0;" parent="WIyWlLk6GJQsqaUBKTNV-1" source="PFBzOuT5Nha9AD8Nsqsn-37" target="PFBzOuT5Nha9AD8Nsqsn-2" edge="1">
          <mxGeometry relative="1" as="geometry" />
        </mxCell>
        <mxCell id="PFBzOuT5Nha9AD8Nsqsn-37" value="Remove Accessory" style="whiteSpace=wrap;html=1;rounded=1;fillColor=#dae8fc;strokeColor=#6c8ebf;" parent="WIyWlLk6GJQsqaUBKTNV-1" vertex="1">
          <mxGeometry x="392" y="600" width="118" height="30" as="geometry" />
        </mxCell>
        <mxCell id="PFBzOuT5Nha9AD8Nsqsn-44" style="edgeStyle=orthogonalEdgeStyle;rounded=0;orthogonalLoop=1;jettySize=auto;html=1;entryX=0.5;entryY=1;entryDx=0;entryDy=0;" parent="WIyWlLk6GJQsqaUBKTNV-1" source="PFBzOuT5Nha9AD8Nsqsn-38" target="PFBzOuT5Nha9AD8Nsqsn-2" edge="1">
          <mxGeometry relative="1" as="geometry" />
        </mxCell>
        <mxCell id="PFBzOuT5Nha9AD8Nsqsn-38" value="Remove Line" style="whiteSpace=wrap;html=1;rounded=1;fillColor=#dae8fc;strokeColor=#6c8ebf;" parent="WIyWlLk6GJQsqaUBKTNV-1" vertex="1">
          <mxGeometry x="392" y="670" width="118" height="30" as="geometry" />
        </mxCell>
        <mxCell id="PFBzOuT5Nha9AD8Nsqsn-41" value="5" style="ellipse;whiteSpace=wrap;html=1;aspect=fixed;fillColor=#d5e8d4;strokeColor=#82b366;" parent="WIyWlLk6GJQsqaUBKTNV-1" vertex="1">
          <mxGeometry x="334" y="580" width="30" height="30" as="geometry" />
        </mxCell>
        <mxCell id="PFBzOuT5Nha9AD8Nsqsn-42" value="6" style="ellipse;whiteSpace=wrap;html=1;aspect=fixed;fillColor=#d5e8d4;strokeColor=#82b366;" parent="WIyWlLk6GJQsqaUBKTNV-1" vertex="1">
          <mxGeometry x="334" y="660" width="30" height="30" as="geometry" />
        </mxCell>
        <mxCell id="PFBzOuT5Nha9AD8Nsqsn-45" value="7" style="ellipse;whiteSpace=wrap;html=1;aspect=fixed;fillColor=#d5e8d4;strokeColor=#82b366;" parent="WIyWlLk6GJQsqaUBKTNV-1" vertex="1">
          <mxGeometry x="399" y="810" width="30" height="30" as="geometry" />
        </mxCell>
        <mxCell id="ujzggIsNUwqVo8zfASbI-0" value="Clear cart" style="whiteSpace=wrap;html=1;rounded=1;fillColor=#f8cecc;strokeColor=#b85450;" vertex="1" parent="WIyWlLk6GJQsqaUBKTNV-1">
          <mxGeometry x="392" y="740" width="118" height="30" as="geometry" />
        </mxCell>
        <mxCell id="ujzggIsNUwqVo8zfASbI-2" value="" style="edgeStyle=orthogonalEdgeStyle;rounded=0;orthogonalLoop=1;jettySize=auto;html=1;" edge="1" parent="WIyWlLk6GJQsqaUBKTNV-1" source="ujzggIsNUwqVo8zfASbI-1" target="PFBzOuT5Nha9AD8Nsqsn-45">
          <mxGeometry relative="1" as="geometry" />
        </mxCell>
        <mxCell id="ujzggIsNUwqVo8zfASbI-1" value="Submit order" style="whiteSpace=wrap;html=1;rounded=1;fillColor=#dae8fc;strokeColor=#6c8ebf;" vertex="1" parent="WIyWlLk6GJQsqaUBKTNV-1">
          <mxGeometry x="168" y="820" width="118" height="30" as="geometry" />
        </mxCell>
      </root>
    </mxGraphModel>
  </diagram>
</mxfile>
